# xmcd CD database file
#
# Track frame offsets:
#	150
#	18169
#	32585
#	49286
#	65255
#	83969
#	111687
#	128506
#	142228
#	157361
#
# Disc length: 2359 seconds
#
# Revision: 0
# Processed by: cddbd v1.5.2PL0 Copyright (c) Steve Scherf et al.
# Submitted via: CDex 1.70beta2
#
DISCID=8f09350a
DTITLE=Madacy - Celebration Party Mix
DYEAR=2005
DGENRE=New Age
TTITLE0=Let's Get Loud
TTITLE1=Get the Party Started
TTITLE2=Cha-Cha Slide
TTITLE3=Ketchup Song (Asereje)
TTITLE4=Rock DJ
TTITLE5=Sex Bomb (House Mix)
TTITLE6=We Like to Party
TTITLE7=Chihuahua
TTITLE8=Cheeky Song (Touch my Bum)
TTITLE9=Not Gonna Get Us
EXTD=YEAR: 2005
EXTT0=
EXTT1=
EXTT2=
EXTT3=
EXTT4=
EXTT5=
EXTT6=
EXTT7=
EXTT8=
EXTT9=
PLAYORDER=
